<svg width="800" height="664" viewBox="0 0 800 664" fill="none" xmlns="http://www.w3.org/2000/svg">
<g opacity="0.89">
<path d="M799.294 347.129C798.789 346.711 798.055 346.579 797.483 346.772C796.786 346.986 796.146 347.173 795.542 347.349L795.248 347.435C793.76 347.87 792.474 348.243 791.201 348.755C771.085 356.747 755.248 370.441 742.784 390.615C739.706 395.6 737.321 400.782 735.423 405.949C738.537 388.568 739.259 381.796 739.81 362.348C739.836 361.532 739.836 360.702 739.836 359.878C739.836 357.628 739.836 355.502 740.327 353.563C740.917 351.265 742.102 348.973 743.249 346.756C743.572 346.128 743.895 345.5 744.161 344.949C744.253 344.841 744.552 344.658 744.669 344.64C750.421 343.762 755.509 341.319 760.225 337.175C764.977 332.978 768.885 327.841 771.843 321.901C782.458 300.614 787.77 277.085 787.636 251.976C787.624 249.554 787.339 247.195 787.026 244.631C786.884 243.482 786.74 242.307 786.619 241.09C786.551 240.422 786.14 239.828 785.544 239.54C784.957 239.255 784.247 239.275 783.654 239.634C783.295 239.858 782.988 240.041 782.709 240.203C782.17 240.524 781.759 240.775 781.37 241.056C772.314 247.546 764.328 255.627 757.628 265.068C746.696 280.498 740.337 297.945 738.625 317.139C738.454 314.999 738.282 312.86 738.11 310.72L738.049 309.944C737.378 301.556 736.684 292.882 736.118 284.352C735.976 282.192 735.561 280.091 735.16 278.058C734.386 274.149 733.654 270.458 734.825 266.59C735.092 265.715 735.316 264.835 735.541 263.957C736.094 261.781 738.767 258.431 742.872 254.767L743.026 254.629C744.54 253.345 752.316 246.231 756.728 232.159C761.205 217.861 760.867 202.923 760.62 192.014L760.614 191.724C760.285 176.729 758.665 165.43 755.36 155.081C754.933 153.757 754.426 152.452 753.888 151.08C753.61 150.366 753.325 149.629 753.032 148.857C752.792 148.203 752.214 147.728 751.538 147.615L751.208 147.585C750.622 147.585 750.075 147.848 749.704 148.301L746.493 152.213C731.101 170.986 723.54 193.003 724.013 217.655C724.095 221.996 724.42 226.45 724.996 231.048C721.083 217.547 716.496 204.405 711.278 191.762C711.17 191.485 711.1 191.142 711.091 190.851L711.055 189.123C711.001 186.628 710.945 184.048 711.051 181.509C711.067 181.088 711.34 180.332 711.908 179.588C712.714 178.523 713.608 177.483 714.534 176.4C716.113 174.563 717.743 172.666 719.034 170.501C723.193 163.535 725.146 155.305 725.178 144.599C725.234 131.997 723.291 118.734 719.056 102.859C716.742 94.1989 713.249 82.9477 706.744 72.7472C706.303 72.0615 705.81 71.4158 705.284 70.732C705.048 70.4292 704.799 70.1064 704.547 69.7595C704.178 69.2642 703.668 68.9755 702.846 68.9755C702.19 69.0236 701.605 69.3966 701.278 69.9761C693.113 84.7123 689.046 100.455 688.854 118.105C688.689 132.821 690.987 145.484 693.869 155.492C686.536 142.095 678.387 129.151 669.554 116.874L669.351 116.595C669.151 116.328 669.067 116.198 669.081 116.29C668.525 112.318 668.14 109.14 667.873 106.372C667.88 106.33 667.932 106.098 668.345 105.408C668.928 104.413 669.568 103.439 670.248 102.408C671.611 100.335 673.019 98.1892 673.921 95.787C676.644 88.5362 677.256 80.3128 675.786 70.6558C672.56 49.2824 663.137 30.0365 646.987 11.8153C645.325 9.94441 643.488 8.29012 641.545 6.54159L641.008 6.05433C640.248 5.36654 639.468 4.66272 638.68 3.91879C638.178 3.44156 637.461 3.2631 636.765 3.46763C636.107 3.67617 635.6 4.22158 635.443 4.89933L635.09 6.44735C634.85 7.47401 634.663 8.28411 634.525 9.09822C632.351 22.0719 632.51 35.9679 635.012 51.5844C637.495 67.0725 642.442 80.4312 650.031 92.0352C638.65 78.6245 627.579 67.3633 616.009 57.3834C615.957 57.3152 615.881 57.1087 615.875 57.0566C616.779 49.2664 614.858 41.9273 609.997 34.6204C603.615 25.0175 594.746 17.6985 583.637 12.87C576.99 9.98653 570.102 7.43391 563.359 4.93342C560.128 3.73432 556.898 2.53922 553.571 1.2579C550.228 -0.0715508 548.799 -0.308165 548.023 0.409696C547.024 1.34011 547.265 2.13417 547.7 3.57791L547.84 4.04913C551.917 17.7807 557.327 28.6409 564.383 37.2492C577.337 53.0682 592.486 61.1051 610.673 61.8149C611.311 61.853 611.816 62.0294 612.023 62.1899C614.583 64.1068 616.468 65.6408 618.134 67.1608C623.404 71.9772 628.594 77.1085 633.671 82.5126C626.119 77.8204 616.889 75.7029 606.494 76.2283C600.806 76.515 595.159 77.3492 589.699 78.1553L589.49 78.1873C587.876 78.424 586.27 78.6586 584.668 78.8852C581.159 79.3604 577.621 79.982 574.497 80.5274C573.232 80.754 570.21 81.4418 569.514 82.9076C569.274 83.4089 569.294 83.9583 569.567 84.4576C569.807 84.8927 570.072 85.3018 570.361 85.6748C579.378 97.3751 589.665 105.081 601.808 109.23C616.615 114.315 630.214 113.896 642.434 107.914C644.302 106.886 646.556 106.364 649.131 106.364C651.074 106.364 652.532 106.671 653.015 106.781C653.739 106.902 654.721 107.307 654.922 107.568C662.522 117.559 669.734 128.231 676.47 139.442C670.779 133.908 663.358 130.176 653.248 127.746C644.387 125.634 635.327 125.181 626.568 124.74L623.635 124.592C620.888 124.451 618.141 124.277 615.311 124.098L610.567 123.806C609.953 123.806 609.37 124.102 609.013 124.596C608.618 125.127 608.524 125.817 608.756 126.436C608.947 126.954 609.294 127.866 609.472 128.171C618.71 143.623 629.558 154.311 642.632 160.848C655.413 167.232 666.961 168.921 678.609 166.135C679.957 165.81 681.519 165.638 683.133 165.638C688.088 165.638 691.543 167.15 692.269 168.55C698.677 181.77 704.396 195.507 709.329 209.52C704.156 202.387 696.921 196.594 687.761 192.261C678.661 187.966 669.187 184.04 659.865 180.176C655.858 178.519 651.836 176.857 647.831 175.157C647.236 174.896 646.532 174.95 645.977 175.317C645.431 175.68 645.106 176.286 645.106 176.937C645.106 178.189 658.401 215.086 677.709 229.626C685.585 235.557 695.286 241.659 707.52 241.946C711.182 242.02 714.968 242.537 717.827 245.788C718.264 246.305 718.844 246.708 719.475 246.923C720.452 247.244 720.72 247.841 721.202 249.878C725.164 266.514 728.049 283.66 729.826 301.071C729.289 299.305 728.665 297.52 727.949 295.713C723.628 284.755 716.355 275.166 705.062 265.535C699.241 260.55 693.145 255.724 687.25 251.053L686.969 250.833C684.284 248.705 681.605 246.586 678.934 244.44C678.383 243.997 677.845 243.54 677.222 243.007L675.555 241.579C674.972 241.086 674.104 240.983 673.422 241.324C672.722 241.679 672.303 242.413 672.357 243.197C672.439 244.374 672.505 245.487 672.568 246.556L672.6 247.055C672.732 249.255 672.856 251.33 673.079 253.38C675.168 273.333 681.102 289.992 691.218 304.308C697.48 313.156 706.464 323.973 720.472 329.088C723.881 330.339 726.353 332.234 729.002 335.635C731.5 338.819 731.966 341.729 731.909 345.39C731.671 360.728 730.578 375.943 728.651 390.844C728.2 386.697 727.245 382.428 725.78 377.993C722.746 368.809 718.017 359.88 711.322 350.696C705.543 342.743 699.53 334.762 693.714 327.04L693.327 326.525C691.021 323.467 688.717 320.405 686.474 317.41C686.053 316.794 685.445 316.573 685.094 316.451C684.597 316.208 684.003 316.184 683.476 316.409C682.959 316.629 682.562 317.065 682.387 317.598L682.319 317.807C682.223 318.087 682.146 318.336 682.106 318.585C678.096 342.499 680.556 363.924 689.626 384.092C694.055 393.954 699.997 405.119 710.472 413.152C715.254 416.819 719.03 421.965 721.103 427.637C721.543 428.858 721.527 429.388 721.476 429.592C717.043 447.956 711.252 465.668 704.212 482.431C706.024 473.596 705.9 464.316 703.831 454.701C700.893 441.074 695.844 427.868 691.34 416.559L689.991 413.172C687.879 407.872 685.754 402.53 683.558 396.994C683.279 396.286 682.608 395.803 681.711 395.759C681.005 395.759 680.356 396.162 680.019 396.815L679.311 398.147C679 398.73 678.71 399.274 678.461 399.835C669.401 420.276 666.341 441.231 669.371 462.117C671.537 477.051 675.206 487.745 681.27 496.793C684.408 501.469 687.39 506.678 687.931 513.085C688.06 514.601 688 515.645 687.324 516.835C679.676 530.227 671.102 542.866 661.711 554.609C661.748 554.544 661.782 554.48 661.818 554.416C668.573 542.07 668.778 528.721 668.088 517.29C667.492 507.49 666.37 497.705 665.289 488.244L665.227 487.697C664.791 483.907 664.358 480.119 663.963 476.323C663.735 474.172 663.48 472.02 663.217 469.837L662.87 466.881C662.794 466.227 662.395 465.662 661.822 465.377C660.755 464.82 659.029 465.68 657.164 467.886C644.348 483.043 636.396 500.171 633.524 518.798C630.547 538.11 632.161 554.637 638.465 569.323C638.634 569.714 638.63 570.512 638.628 570.778L638.289 579.228C638.239 579.836 637.918 580.522 637.653 580.776C624.856 593.1 610.767 603.814 595.648 612.731C602.805 606.262 607.95 597.823 611.285 587.127C614.98 575.272 616.877 562.934 618.716 550.971L618.876 549.906C619.528 545.703 620.208 541.509 620.902 537.221L621.686 532.375C621.798 531.669 621.519 530.963 620.972 530.54C620.428 530.107 619.642 530.003 619.017 530.271L618.333 530.554C617.603 530.853 616.967 531.12 616.368 531.426C587.786 545.701 568.971 578.996 571.63 610.59C572.047 615.538 571.594 620.187 570.242 624.79C570.116 625.21 569.711 625.665 569.547 625.741C555.971 631.466 543.064 635.643 530.076 638.51C529.409 638.664 528.879 639.142 528.663 639.785C528.444 640.433 528.576 641.137 529.022 641.666C530.433 643.339 531.662 645.137 532.673 647.02C533.088 647.79 534.077 648.185 534.816 647.993C545.398 645.578 555.703 642.452 565.454 638.694C566.242 638.378 566.844 638.227 567.407 638.319C569.577 638.608 571.869 639.053 574.413 639.685C574.939 639.813 575.374 640.056 575.382 640.034C580.94 651.115 590.493 658.173 604.595 661.608C607.663 662.344 610.828 662.887 614 663.22C617.32 663.571 621.024 663.749 625.004 663.749C630.519 663.749 634.451 663.409 634.499 663.405C646.723 662.037 657.162 659.286 666.408 654.993C670.201 653.234 674.525 650.866 677.847 646.637C678.483 645.827 678.377 644.658 677.605 643.978C668.212 635.691 658.65 629.669 648.365 625.57C633.127 619.515 619.247 617.874 605.642 620.491C603.609 620.886 601.624 621.384 599.695 621.955C612.422 614.347 624.607 605.406 636.115 595.22C636.336 595.019 636.699 594.843 636.981 594.793C638.864 594.48 641.365 594.095 643.923 593.91C644.16 593.91 644.461 594.025 644.495 594.037C651.429 601.797 660.362 605.569 671.806 605.569C672.389 605.569 672.975 605.557 673.558 605.536C686 605.135 698.509 601.717 710.743 595.37C719.634 590.732 728.902 585.332 736.417 577.279C738.083 575.489 739.571 573.463 740.885 571.677L741.013 571.502C741.595 570.714 742.182 569.92 742.786 569.136C743.115 568.713 743.253 568.168 743.167 567.618C743.074 567.089 742.768 566.618 742.244 566.277C742.112 566.205 738.93 564.498 736.024 563.373C716.57 555.856 696.929 555.086 678.192 561.123C672.058 563.094 666.285 566.054 660.665 570.145C671.06 558.061 680.685 544.815 689.423 530.562C689.518 530.412 689.766 530.005 689.846 529.931C690.61 529.443 691.392 528.982 692.172 528.527C693.57 527.707 695.018 526.859 696.377 525.848C697.524 524.992 697.847 524.97 699.006 525.716C700.646 526.78 702.553 527.334 704.216 527.769C713.941 530.259 723.744 529.018 734.588 523.927C744.494 519.283 752.11 511.942 758.867 504.703C768.697 494.144 775.12 484.617 779.082 474.719C779.914 472.642 780.507 470.494 781.125 468.249C781.38 467.306 781.64 466.364 781.917 465.437C782.22 464.443 781.691 463.39 780.708 463.043L779.894 462.981C775.885 462.981 740.129 463.568 719.215 483.861C714.665 488.276 710.586 492.969 706.863 498.106C715.136 480.585 722.152 462.119 727.807 442.951L727.889 442.67C727.957 442.436 728.059 442.081 728.128 441.984L733.598 434.473C733.802 434.172 733.826 434.172 734.147 434.172C734.29 434.172 734.446 434.182 734.624 434.192L735.794 434.262C739.864 434.515 742.26 434.479 744.231 434.17C752.02 432.941 759.05 429.019 765.721 422.177C781.324 406.176 792.063 386.212 798.552 361.151C799.248 358.466 799.443 355.755 799.651 352.879C799.743 351.576 799.846 350.233 799.994 348.845C800.056 348.179 799.795 347.544 799.294 347.129Z" fill="#FFB900"/>
<path d="M269.916 638.494C256.94 635.629 244.035 631.452 230.455 625.727C230.293 625.651 229.89 625.196 229.764 624.786C228.41 620.172 227.957 615.524 228.374 610.576C231.033 578.98 212.218 545.687 183.642 531.414C183.035 531.106 182.401 530.839 181.671 530.54L180.993 530.259C180.35 529.985 179.566 530.099 179.046 530.516C178.485 530.949 178.206 531.655 178.32 532.363L179.102 537.207C179.796 541.495 180.476 545.689 181.128 549.888L181.292 550.987C183.127 562.92 185.024 575.26 188.719 587.115C192.054 597.811 197.199 606.25 204.356 612.717C189.237 603.802 175.148 593.088 162.353 580.766C162.084 580.508 161.765 579.822 161.719 579.256L161.376 570.8C161.374 570.5 161.37 569.702 161.541 569.307C167.843 554.625 169.457 538.098 166.48 518.786C163.608 500.159 155.656 483.031 142.84 467.874C141.34 466.099 140.017 465.201 138.906 465.201C138.635 465.201 138.391 465.255 138.198 465.355C137.609 465.648 137.21 466.215 137.132 466.871L136.789 469.821C136.524 472.01 136.269 474.16 136.041 476.314C135.646 480.107 135.213 483.895 134.777 487.685L134.715 488.232C133.632 497.695 132.51 507.48 131.916 517.278C131.226 528.707 131.431 542.056 138.186 554.404C138.222 554.466 138.254 554.532 138.291 554.594C128.9 542.852 120.328 530.215 112.68 516.825C112.004 515.633 111.946 514.589 112.073 513.073C112.616 506.662 115.596 501.453 118.734 496.781C124.796 487.733 128.465 477.039 130.633 462.105C133.663 441.219 130.603 420.266 121.543 399.825C121.294 399.262 121.004 398.718 120.693 398.135L119.985 396.799C119.646 396.148 118.922 395.719 118.158 395.753C117.396 395.793 116.725 396.276 116.448 396.978C114.25 402.52 112.125 407.86 110.013 413.16L108.664 416.547C104.16 427.858 99.1089 441.064 96.1733 454.689C94.104 464.304 93.9776 473.584 95.7923 482.419C88.7501 465.658 82.9611 447.946 78.5276 429.58C78.4775 429.376 78.4614 428.846 78.9006 427.625C80.9739 421.951 84.7497 416.805 89.5341 413.138C100.007 405.105 105.949 393.94 110.378 384.078C119.448 363.91 121.908 342.485 117.898 318.573C117.856 318.322 117.779 318.073 117.689 317.803L117.617 317.586C117.442 317.051 117.045 316.618 116.52 316.391C116.007 316.176 115.361 316.216 114.962 316.413C114.561 316.559 113.953 316.782 113.558 317.361C111.289 320.393 108.985 323.453 106.679 326.511L106.292 327.026C100.476 334.749 94.4629 342.729 88.6839 350.68C81.9886 359.866 77.2603 368.795 74.2264 377.979C72.7626 382.414 71.8062 386.683 71.355 390.83C69.428 375.929 68.3352 360.716 68.0965 345.376C68.0404 341.715 68.5056 338.805 71.0061 335.619C73.6529 332.222 76.1254 330.325 79.5342 329.074C93.5405 323.957 102.526 313.143 108.788 304.294C118.904 289.978 124.838 273.321 126.927 253.37C127.15 251.316 127.276 249.239 127.406 247.041L127.438 246.542C127.501 245.473 127.567 244.36 127.651 243.181C127.703 242.399 127.284 241.665 126.584 241.31C125.906 240.969 125.038 241.07 124.449 241.569L122.786 242.993C122.161 243.526 121.625 243.983 121.07 244.428C118.401 246.572 115.722 248.693 113.037 250.821L112.756 251.042C106.863 255.71 100.767 260.536 94.9462 265.521C83.6509 275.154 76.378 284.743 72.0568 295.701C71.343 297.508 70.7173 299.295 70.1799 301.063C71.9566 283.65 74.842 266.502 78.8043 249.864C79.2856 247.829 79.5542 247.232 80.5428 246.907C81.1644 246.696 81.7439 246.291 82.167 245.79C85.0405 242.523 88.8243 242.006 92.4898 241.932C104.721 241.645 114.423 235.543 122.297 229.612C141.605 215.07 154.9 178.175 154.9 176.923C154.9 176.272 154.575 175.664 154.023 175.297C153.48 174.938 152.746 174.888 152.193 175.135C148.17 176.841 144.148 178.503 139.983 180.226C130.819 184.026 121.345 187.952 112.245 192.245C103.087 196.578 95.8505 202.373 90.6771 209.504C95.6079 195.494 101.325 181.758 107.725 168.558C108.461 167.134 111.918 165.622 116.875 165.622C118.487 165.622 120.049 165.795 121.399 166.119C133.045 168.911 144.593 167.218 157.374 160.832C170.45 154.295 181.298 143.607 190.538 128.149C190.714 127.85 191.061 126.938 191.248 126.426C191.482 125.801 191.388 125.111 190.999 124.588C190.638 124.09 190.061 123.794 189.325 123.794C189.319 123.794 189.315 123.794 189.309 123.794L184.693 124.084C181.863 124.263 179.116 124.437 176.369 124.578L173.436 124.726C164.677 125.167 155.617 125.62 146.754 127.732C136.646 130.162 129.225 133.894 123.534 139.428C130.27 128.217 137.482 117.549 145.08 107.558C145.285 107.293 146.265 106.888 147.069 106.753C147.47 106.659 148.93 106.352 150.871 106.352C153.446 106.352 155.7 106.876 157.611 107.926C169.752 113.864 183.387 114.305 198.192 109.22C210.335 105.071 220.62 97.3651 229.635 85.6688C229.928 85.2918 230.193 84.8808 230.433 84.4476C230.708 83.9483 230.726 83.3989 230.486 82.8976C229.788 81.4338 226.768 80.746 225.497 80.5174C222.377 79.972 218.841 79.3504 215.336 78.8752C213.73 78.6506 212.122 78.416 210.51 78.1774L210.303 78.1453C204.841 77.3392 199.194 76.505 193.506 76.2183C183.111 75.6869 173.881 77.8084 166.327 82.5046C171.406 77.0986 176.596 71.9693 181.865 67.1508C183.532 65.6308 185.417 64.0989 187.985 62.1759C188.184 62.0235 188.689 61.845 189.309 61.8089C207.514 61.0971 222.663 53.0602 235.617 37.2432C242.673 28.6329 248.083 17.7728 252.16 4.04117L252.3 3.56994C252.735 2.1262 252.976 1.33214 251.975 0.401727C251.203 -0.316134 249.844 -0.103577 246.311 1.29605C243.102 2.52925 239.874 3.72635 236.559 4.95554C229.9 7.42394 223.012 9.97655 216.365 12.86C205.256 17.6885 196.385 25.0075 190.003 34.6104C185.142 41.9174 183.221 49.2584 184.125 57.0145C184.119 57.1007 184.043 57.3073 184.031 57.3313C172.435 67.3433 161.35 78.6145 149.969 92.0293C157.558 80.4252 162.505 67.0646 164.988 51.5764C167.49 35.9619 167.649 22.0639 165.475 9.09025C165.337 8.27815 165.15 7.46605 164.912 6.44941L164.557 4.88335C164.396 4.21161 163.891 3.6682 163.227 3.45966C162.563 3.26315 161.82 3.4376 161.324 3.90882C160.53 4.65676 159.752 5.36259 158.992 6.04837L158.457 6.53163C156.512 8.28417 154.675 9.93846 153.013 11.8093C136.861 30.0305 127.44 49.2764 124.214 70.6478C122.744 80.3069 123.354 88.5302 126.079 95.781C126.981 98.1832 128.389 100.329 129.79 102.458C130.432 103.431 131.074 104.407 131.661 105.41C132.094 106.13 132.131 106.316 132.129 106.282C131.862 109.14 131.479 112.324 130.962 116.146C130.939 116.194 130.867 116.306 130.637 116.611L130.45 116.87C121.617 129.148 113.468 142.091 106.135 155.488C109.019 145.482 111.315 132.817 111.152 118.101C110.956 100.449 106.891 84.7063 98.7219 69.9661C98.3991 69.3926 97.8136 69.0196 96.9935 68.9635C96.3979 68.9635 95.8244 69.2582 95.4495 69.7615C95.2048 70.1024 94.9562 70.4233 94.7196 70.7281C94.1922 71.4098 93.6989 72.0555 93.2578 72.7453C86.7529 82.9457 83.2639 94.1929 80.9479 102.853C76.7149 118.737 74.7699 131.999 74.826 144.594C74.8581 155.299 76.8091 163.529 80.9679 170.493C82.2613 172.66 83.8895 174.557 85.5257 176.466C86.394 177.479 87.2863 178.52 88.0944 179.586C88.6599 180.328 88.9326 181.084 88.9486 181.505C89.0549 184.044 88.9987 186.625 88.9446 189.119L88.9065 190.843C88.9005 191.14 88.8323 191.481 88.73 191.742C83.5085 204.393 78.9186 217.541 75.0045 231.044C75.5799 226.446 75.9048 221.994 75.987 217.651C76.4602 192.999 68.8986 170.984 53.5067 152.209L50.2984 148.301C49.9274 147.842 49.378 147.581 48.7925 147.581L48.4717 147.609C47.7859 147.724 47.2084 148.199 46.9698 148.847C46.677 149.627 46.3903 150.363 46.1115 151.074C45.5742 152.45 45.0668 153.753 44.6377 155.079C41.3352 165.424 39.715 176.725 39.3861 191.716L39.3801 192.008C39.1335 202.915 38.7946 217.855 43.2742 232.153C47.6836 246.227 55.4598 253.339 56.9677 254.617L57.1281 254.761C61.2327 258.425 63.9057 261.775 64.4591 263.951C64.6817 264.829 64.9083 265.71 65.173 266.58C66.344 270.452 65.6121 274.141 64.8221 278.126C64.429 280.137 64.02 282.214 63.8776 284.346C63.3121 292.876 62.6183 301.55 61.9466 309.938L61.8864 310.714C61.714 312.854 61.5416 314.993 61.3711 317.133C59.6587 297.939 53.3022 280.492 42.3658 265.062C35.6685 255.621 27.6838 247.544 18.6283 241.05C18.2373 240.769 17.8262 240.518 17.2768 240.191C17.0101 240.037 16.7013 239.853 16.3263 239.618C15.7609 239.279 15.035 239.249 14.4515 239.534C13.8539 239.824 13.4429 240.416 13.3747 241.086C13.2524 242.299 13.11 243.474 12.9596 244.693C12.6568 247.19 12.3701 249.548 12.358 251.97C12.2237 277.079 17.5355 300.608 28.151 321.895C31.1087 327.835 35.0168 332.972 39.7711 337.171C44.4853 341.312 49.5725 343.754 55.3134 344.632C55.4397 344.654 55.7405 344.837 55.7866 344.873C56.0974 345.496 56.4203 346.122 56.7431 346.75C57.8901 348.965 59.0752 351.257 59.6647 353.555C60.156 355.498 60.156 357.622 60.156 359.872C60.156 360.696 60.156 361.526 60.182 362.34C60.7335 381.79 61.4573 388.564 64.5694 405.943C62.6705 400.776 60.2863 395.594 57.2083 390.609C44.744 370.435 28.9089 356.742 8.79881 348.751C7.5195 348.235 6.23617 347.865 4.74831 347.431L4.45154 347.343C3.84798 347.167 3.20832 346.978 2.52455 346.77C1.90695 346.567 1.20312 346.706 0.699817 347.123C0.198518 347.538 -0.0641633 348.173 0.00200821 348.835C0.150393 350.215 0.252658 351.556 0.346902 352.865C0.553438 355.737 0.747942 358.448 1.44375 361.131C7.93257 386.194 18.6724 406.156 34.2749 422.159C40.9462 429.001 47.9764 432.923 55.7666 434.152C57.7317 434.459 60.1339 434.497 64.2004 434.244L65.3715 434.174C65.5499 434.164 65.7064 434.154 65.8487 434.154C66.1696 434.154 66.1956 434.154 66.4182 434.483L71.8663 441.964C71.9365 442.063 72.0388 442.418 72.1089 442.662L72.1892 442.931C77.8438 462.101 84.86 480.565 93.1335 498.088C89.4098 492.949 85.3292 488.256 80.7814 483.843C59.8672 463.55 24.1105 462.963 20.1021 462.963L19.6028 462.967L19.288 463.025C18.3055 463.374 17.7741 464.425 18.0769 465.413C18.3556 466.346 18.6163 467.288 18.915 468.395C19.4865 470.474 20.0801 472.622 20.9122 474.699C24.8745 484.601 31.2971 494.126 41.1286 504.685C47.8841 511.924 55.4999 519.265 65.4036 523.907C76.2497 529 86.0431 530.243 95.7823 527.749C97.4386 527.314 99.3436 526.762 100.982 525.7C102.149 524.952 102.468 524.976 103.615 525.83C104.974 526.841 106.42 527.689 107.824 528.511C108.6 528.966 109.382 529.425 110.111 529.886C110.228 529.985 110.476 530.392 110.569 530.542C119.307 544.795 128.934 558.041 139.329 570.125C133.707 566.034 127.934 563.074 121.802 561.103C103.063 555.066 83.4223 555.834 63.9698 563.355C61.0663 564.48 57.8841 566.185 57.6715 566.305C57.2264 566.598 56.9196 567.071 56.8233 567.614C56.7391 568.148 56.8775 568.693 57.2023 569.11C57.8099 569.9 58.3974 570.694 58.9789 571.482L59.1072 571.655C60.4206 573.443 61.9085 575.467 63.5768 577.259C71.0903 585.314 80.3563 590.714 89.2514 595.35C101.483 601.697 113.992 605.115 126.432 605.517C127.017 605.537 127.603 605.549 128.186 605.549C139.63 605.549 148.563 601.777 155.449 594.063C155.533 594.003 155.832 593.888 155.996 593.886C158.627 594.075 161.128 594.458 162.997 594.769C163.291 594.821 163.654 594.997 163.881 595.202C175.385 605.386 187.568 614.325 200.295 621.933C198.366 621.362 196.379 620.864 194.346 620.465C180.745 617.85 166.865 619.491 151.623 625.546C141.34 629.645 131.778 635.667 122.387 643.954C121.613 644.634 121.505 645.803 122.143 646.613C125.465 650.842 129.788 653.21 133.58 654.967C142.828 659.264 153.267 662.015 165.505 663.383C165.541 663.385 169.473 663.725 174.988 663.725C178.968 663.725 182.672 663.547 185.99 663.196C189.162 662.863 192.327 662.32 195.397 661.582C209.497 658.149 219.052 651.091 224.526 640.132C224.624 640.038 225.045 639.793 225.579 639.663C228.123 639.031 230.413 638.586 232.591 638.295C233.104 638.213 233.744 638.352 234.55 638.676C244.287 642.428 254.592 645.554 265.157 647.965C265.306 648.001 265.46 648.019 265.615 648.019C266.324 648.019 266.978 647.628 267.323 646.99C268.332 645.113 269.561 643.312 270.975 641.638C271.418 641.111 271.55 640.409 271.331 639.759C271.123 639.13 270.594 638.652 269.916 638.494Z" fill="#FFB900"/>
<path d="M495.114 379.715L575.682 301.18C578.414 298.517 579.4 294.53 578.219 290.903C577.04 287.271 573.904 284.625 570.126 284.077L458.791 267.909L408.992 167.022C407.304 163.599 403.819 161.433 400.003 161.433C396.187 161.433 392.7 163.603 391.014 167.022L341.233 267.909L229.88 284.077C226.104 284.625 222.966 287.273 221.787 290.903C220.606 294.53 221.59 298.517 224.324 301.18L304.892 379.715L285.883 490.601C285.237 494.36 286.783 498.162 289.872 500.404C292.955 502.648 297.046 502.945 300.429 501.168L400.007 448.822L499.585 501.168C501.051 501.94 502.653 502.319 504.247 502.319C506.327 502.319 508.394 501.673 510.141 500.404C513.229 498.164 514.777 494.36 514.129 490.601L495.114 379.715Z" fill="#FFB900"/>
</g>
</svg>
